<mxfile host="65bd71144e">
    <diagram id="aUmAUzeA06FB4q2Wfa_P" name="Step 1_Define the purpose">
        <mxGraphModel dx="1067" dy="729" grid="1" gridSize="10" guides="1" tooltips="1" connect="1" arrows="1" fold="1" page="1" pageScale="1" pageWidth="827" pageHeight="1169" math="0" shadow="0">
            <root>
                <mxCell id="0"/>
                <mxCell id="1" parent="0"/>
                <mxCell id="2" value="" style="shape=actor;whiteSpace=wrap;html=1;" parent="1" vertex="1">
                    <mxGeometry x="350" y="340" width="120" height="170" as="geometry"/>
                </mxCell>
                <mxCell id="3" value="route" style="ellipse;shape=cloud;whiteSpace=wrap;html=1;" parent="1" vertex="1">
                    <mxGeometry x="160" y="320" width="120" height="80" as="geometry"/>
                </mxCell>
                <mxCell id="5" value="bus station" style="ellipse;shape=cloud;whiteSpace=wrap;html=1;" parent="1" vertex="1">
                    <mxGeometry x="470" y="220" width="120" height="80" as="geometry"/>
                </mxCell>
                <mxCell id="6" value="bus" style="ellipse;shape=cloud;whiteSpace=wrap;html=1;" parent="1" vertex="1">
                    <mxGeometry x="280" y="220" width="120" height="80" as="geometry"/>
                </mxCell>
            </root>
        </mxGraphModel>
    </diagram>
    <diagram id="vXUb7djSmbwuvujvZtpR" name="Step 2_The ERM">
        <mxGraphModel dx="932" dy="567" grid="1" gridSize="10" guides="1" tooltips="1" connect="1" arrows="1" fold="1" page="1" pageScale="1" pageWidth="827" pageHeight="1169" math="0" shadow="0">
            <root>
                <mxCell id="XBzS4Srf7KFiKvB-mdMv-0"/>
                <mxCell id="XBzS4Srf7KFiKvB-mdMv-1" parent="XBzS4Srf7KFiKvB-mdMv-0"/>
                <mxCell id="7B3q_24nmYiT5QcvCkL6-20" style="edgeStyle=none;html=1;exitX=1;exitY=0.75;exitDx=0;exitDy=0;entryX=0;entryY=0.5;entryDx=0;entryDy=0;startArrow=ERone;startFill=0;endArrow=ERone;endFill=0;" edge="1" parent="XBzS4Srf7KFiKvB-mdMv-1" source="7B3q_24nmYiT5QcvCkL6-0" target="7B3q_24nmYiT5QcvCkL6-3">
                    <mxGeometry relative="1" as="geometry"/>
                </mxCell>
                <mxCell id="7B3q_24nmYiT5QcvCkL6-29" style="edgeStyle=none;html=1;exitX=0.5;exitY=1;exitDx=0;exitDy=0;entryX=0.5;entryY=0;entryDx=0;entryDy=0;startArrow=ERmany;startFill=0;endArrow=ERmany;endFill=0;" edge="1" parent="XBzS4Srf7KFiKvB-mdMv-1" source="7B3q_24nmYiT5QcvCkL6-0" target="7B3q_24nmYiT5QcvCkL6-2">
                    <mxGeometry relative="1" as="geometry"/>
                </mxCell>
                <mxCell id="7B3q_24nmYiT5QcvCkL6-0" value="bus" style="rounded=0;whiteSpace=wrap;html=1;" vertex="1" parent="XBzS4Srf7KFiKvB-mdMv-1">
                    <mxGeometry x="280" y="370" width="120" height="60" as="geometry"/>
                </mxCell>
                <mxCell id="7B3q_24nmYiT5QcvCkL6-24" style="edgeStyle=none;html=1;exitX=1;exitY=0;exitDx=0;exitDy=0;entryX=0.06;entryY=0.833;entryDx=0;entryDy=0;entryPerimeter=0;startArrow=ERmany;startFill=0;endArrow=ERmany;endFill=0;" edge="1" parent="XBzS4Srf7KFiKvB-mdMv-1" source="7B3q_24nmYiT5QcvCkL6-1" target="7B3q_24nmYiT5QcvCkL6-11">
                    <mxGeometry relative="1" as="geometry"/>
                </mxCell>
                <mxCell id="7B3q_24nmYiT5QcvCkL6-27" style="edgeStyle=none;html=1;exitX=0.5;exitY=1;exitDx=0;exitDy=0;entryX=0.5;entryY=0;entryDx=0;entryDy=0;startArrow=ERmany;startFill=0;endArrow=ERmany;endFill=0;" edge="1" parent="XBzS4Srf7KFiKvB-mdMv-1" source="7B3q_24nmYiT5QcvCkL6-1" target="7B3q_24nmYiT5QcvCkL6-15">
                    <mxGeometry relative="1" as="geometry"/>
                </mxCell>
                <mxCell id="7B3q_24nmYiT5QcvCkL6-1" value="route" style="rounded=0;whiteSpace=wrap;html=1;" vertex="1" parent="XBzS4Srf7KFiKvB-mdMv-1">
                    <mxGeometry x="280" y="110" width="120" height="60" as="geometry"/>
                </mxCell>
                <mxCell id="7B3q_24nmYiT5QcvCkL6-21" style="edgeStyle=none;html=1;exitX=1;exitY=0.75;exitDx=0;exitDy=0;startArrow=ERone;startFill=0;endArrow=ERone;endFill=0;" edge="1" parent="XBzS4Srf7KFiKvB-mdMv-1" source="7B3q_24nmYiT5QcvCkL6-2" target="7B3q_24nmYiT5QcvCkL6-13">
                    <mxGeometry relative="1" as="geometry"/>
                </mxCell>
                <mxCell id="7B3q_24nmYiT5QcvCkL6-22" style="edgeStyle=none;html=1;exitX=0;exitY=0.75;exitDx=0;exitDy=0;startArrow=ERone;startFill=0;endArrow=ERone;endFill=0;" edge="1" parent="XBzS4Srf7KFiKvB-mdMv-1" source="7B3q_24nmYiT5QcvCkL6-2" target="7B3q_24nmYiT5QcvCkL6-12">
                    <mxGeometry relative="1" as="geometry"/>
                </mxCell>
                <mxCell id="7B3q_24nmYiT5QcvCkL6-2" value="bus station" style="rounded=0;whiteSpace=wrap;html=1;" vertex="1" parent="XBzS4Srf7KFiKvB-mdMv-1">
                    <mxGeometry x="280" y="555" width="120" height="60" as="geometry"/>
                </mxCell>
                <mxCell id="7B3q_24nmYiT5QcvCkL6-3" value="driver" style="ellipse;whiteSpace=wrap;html=1;" vertex="1" parent="XBzS4Srf7KFiKvB-mdMv-1">
                    <mxGeometry x="480" y="410" width="120" height="80" as="geometry"/>
                </mxCell>
                <mxCell id="7B3q_24nmYiT5QcvCkL6-33" style="edgeStyle=none;html=1;exitX=0;exitY=0.5;exitDx=0;exitDy=0;entryX=1;entryY=0.25;entryDx=0;entryDy=0;startArrow=ERmany;startFill=0;endArrow=ERmany;endFill=0;" edge="1" parent="XBzS4Srf7KFiKvB-mdMv-1" source="7B3q_24nmYiT5QcvCkL6-4" target="7B3q_24nmYiT5QcvCkL6-0">
                    <mxGeometry relative="1" as="geometry"/>
                </mxCell>
                <mxCell id="7B3q_24nmYiT5QcvCkL6-4" value="capacity" style="ellipse;whiteSpace=wrap;html=1;" vertex="1" parent="XBzS4Srf7KFiKvB-mdMv-1">
                    <mxGeometry x="480" y="320" width="120" height="80" as="geometry"/>
                </mxCell>
                <mxCell id="7B3q_24nmYiT5QcvCkL6-31" style="edgeStyle=none;html=1;exitX=1;exitY=0.5;exitDx=0;exitDy=0;entryX=0;entryY=1;entryDx=0;entryDy=0;startArrow=ERmany;startFill=0;endArrow=ERmany;endFill=0;" edge="1" parent="XBzS4Srf7KFiKvB-mdMv-1" source="7B3q_24nmYiT5QcvCkL6-6" target="7B3q_24nmYiT5QcvCkL6-0">
                    <mxGeometry relative="1" as="geometry"/>
                </mxCell>
                <mxCell id="7B3q_24nmYiT5QcvCkL6-6" value="model" style="ellipse;whiteSpace=wrap;html=1;" vertex="1" parent="XBzS4Srf7KFiKvB-mdMv-1">
                    <mxGeometry x="110" y="410" width="120" height="80" as="geometry"/>
                </mxCell>
                <mxCell id="7B3q_24nmYiT5QcvCkL6-32" style="edgeStyle=none;html=1;exitX=1;exitY=0.5;exitDx=0;exitDy=0;entryX=-0.023;entryY=0.397;entryDx=0;entryDy=0;entryPerimeter=0;startArrow=ERmany;startFill=0;endArrow=ERmany;endFill=0;" edge="1" parent="XBzS4Srf7KFiKvB-mdMv-1" source="7B3q_24nmYiT5QcvCkL6-7" target="7B3q_24nmYiT5QcvCkL6-0">
                    <mxGeometry relative="1" as="geometry"/>
                </mxCell>
                <mxCell id="7B3q_24nmYiT5QcvCkL6-7" value="license plate number" style="ellipse;whiteSpace=wrap;html=1;" vertex="1" parent="XBzS4Srf7KFiKvB-mdMv-1">
                    <mxGeometry x="110" y="320" width="120" height="80" as="geometry"/>
                </mxCell>
                <mxCell id="7B3q_24nmYiT5QcvCkL6-18" style="edgeStyle=none;html=1;exitX=1;exitY=0.5;exitDx=0;exitDy=0;entryX=0;entryY=0.5;entryDx=0;entryDy=0;endArrow=ERone;endFill=0;startArrow=ERone;startFill=0;" edge="1" parent="XBzS4Srf7KFiKvB-mdMv-1" source="7B3q_24nmYiT5QcvCkL6-8" target="7B3q_24nmYiT5QcvCkL6-1">
                    <mxGeometry relative="1" as="geometry"/>
                </mxCell>
                <mxCell id="7B3q_24nmYiT5QcvCkL6-8" value="code" style="ellipse;whiteSpace=wrap;html=1;" vertex="1" parent="XBzS4Srf7KFiKvB-mdMv-1">
                    <mxGeometry x="110" y="80" width="120" height="80" as="geometry"/>
                </mxCell>
                <mxCell id="7B3q_24nmYiT5QcvCkL6-23" style="edgeStyle=none;html=1;exitX=0;exitY=0.5;exitDx=0;exitDy=0;entryX=1;entryY=0.25;entryDx=0;entryDy=0;startArrow=ERmany;startFill=0;endArrow=ERmany;endFill=0;" edge="1" parent="XBzS4Srf7KFiKvB-mdMv-1" source="7B3q_24nmYiT5QcvCkL6-9" target="7B3q_24nmYiT5QcvCkL6-1">
                    <mxGeometry relative="1" as="geometry"/>
                </mxCell>
                <mxCell id="7B3q_24nmYiT5QcvCkL6-9" value="distance" style="ellipse;whiteSpace=wrap;html=1;" vertex="1" parent="XBzS4Srf7KFiKvB-mdMv-1">
                    <mxGeometry x="450" y="80" width="120" height="80" as="geometry"/>
                </mxCell>
                <mxCell id="7B3q_24nmYiT5QcvCkL6-26" style="edgeStyle=none;html=1;exitX=1;exitY=1;exitDx=0;exitDy=0;entryX=0.017;entryY=0.117;entryDx=0;entryDy=0;entryPerimeter=0;startArrow=ERmany;startFill=0;endArrow=ERmany;endFill=0;" edge="1" parent="XBzS4Srf7KFiKvB-mdMv-1" source="7B3q_24nmYiT5QcvCkL6-10" target="7B3q_24nmYiT5QcvCkL6-1">
                    <mxGeometry relative="1" as="geometry"/>
                </mxCell>
                <mxCell id="7B3q_24nmYiT5QcvCkL6-10" value="source" style="ellipse;whiteSpace=wrap;html=1;" vertex="1" parent="XBzS4Srf7KFiKvB-mdMv-1">
                    <mxGeometry x="110" width="120" height="80" as="geometry"/>
                </mxCell>
                <mxCell id="7B3q_24nmYiT5QcvCkL6-11" value="destinacion" style="ellipse;whiteSpace=wrap;html=1;" vertex="1" parent="XBzS4Srf7KFiKvB-mdMv-1">
                    <mxGeometry x="450" width="120" height="80" as="geometry"/>
                </mxCell>
                <mxCell id="7B3q_24nmYiT5QcvCkL6-12" value="address" style="ellipse;whiteSpace=wrap;html=1;" vertex="1" parent="XBzS4Srf7KFiKvB-mdMv-1">
                    <mxGeometry x="110" y="610" width="120" height="80" as="geometry"/>
                </mxCell>
                <mxCell id="7B3q_24nmYiT5QcvCkL6-13" value="telephone" style="ellipse;whiteSpace=wrap;html=1;" vertex="1" parent="XBzS4Srf7KFiKvB-mdMv-1">
                    <mxGeometry x="450" y="610" width="120" height="80" as="geometry"/>
                </mxCell>
                <mxCell id="7B3q_24nmYiT5QcvCkL6-30" style="edgeStyle=none;html=1;exitX=1;exitY=0.5;exitDx=0;exitDy=0;entryX=0;entryY=0.5;entryDx=0;entryDy=0;startArrow=ERmany;startFill=0;endArrow=ERmany;endFill=0;" edge="1" parent="XBzS4Srf7KFiKvB-mdMv-1" source="7B3q_24nmYiT5QcvCkL6-14" target="7B3q_24nmYiT5QcvCkL6-2">
                    <mxGeometry relative="1" as="geometry"/>
                </mxCell>
                <mxCell id="7B3q_24nmYiT5QcvCkL6-14" value="city" style="ellipse;whiteSpace=wrap;html=1;" vertex="1" parent="XBzS4Srf7KFiKvB-mdMv-1">
                    <mxGeometry x="110" y="530" width="120" height="80" as="geometry"/>
                </mxCell>
                <mxCell id="7B3q_24nmYiT5QcvCkL6-19" style="edgeStyle=none;html=1;exitX=0;exitY=0.5;exitDx=0;exitDy=0;entryX=1;entryY=0.5;entryDx=0;entryDy=0;startArrow=ERone;startFill=0;endArrow=ERone;endFill=0;" edge="1" parent="XBzS4Srf7KFiKvB-mdMv-1" source="7B3q_24nmYiT5QcvCkL6-15" target="7B3q_24nmYiT5QcvCkL6-16">
                    <mxGeometry relative="1" as="geometry"/>
                </mxCell>
                <mxCell id="7B3q_24nmYiT5QcvCkL6-28" style="edgeStyle=none;html=1;exitX=0.5;exitY=1;exitDx=0;exitDy=0;entryX=0.5;entryY=0;entryDx=0;entryDy=0;startArrow=ERmany;startFill=0;endArrow=ERmany;endFill=0;" edge="1" parent="XBzS4Srf7KFiKvB-mdMv-1" source="7B3q_24nmYiT5QcvCkL6-15" target="7B3q_24nmYiT5QcvCkL6-0">
                    <mxGeometry relative="1" as="geometry"/>
                </mxCell>
                <mxCell id="7B3q_24nmYiT5QcvCkL6-15" value="order" style="rhombus;whiteSpace=wrap;html=1;" vertex="1" parent="XBzS4Srf7KFiKvB-mdMv-1">
                    <mxGeometry x="300" y="200" width="80" height="80" as="geometry"/>
                </mxCell>
                <mxCell id="7B3q_24nmYiT5QcvCkL6-16" value="order_id" style="ellipse;whiteSpace=wrap;html=1;" vertex="1" parent="XBzS4Srf7KFiKvB-mdMv-1">
                    <mxGeometry x="125" y="200" width="120" height="80" as="geometry"/>
                </mxCell>
                <mxCell id="7B3q_24nmYiT5QcvCkL6-25" style="edgeStyle=none;html=1;exitX=0.5;exitY=1;exitDx=0;exitDy=0;entryX=0.5;entryY=0;entryDx=0;entryDy=0;startArrow=ERmany;startFill=0;endArrow=ERmany;endFill=0;" edge="1" parent="XBzS4Srf7KFiKvB-mdMv-1" source="7B3q_24nmYiT5QcvCkL6-17" target="7B3q_24nmYiT5QcvCkL6-1">
                    <mxGeometry relative="1" as="geometry"/>
                </mxCell>
                <mxCell id="7B3q_24nmYiT5QcvCkL6-17" value="stops" style="ellipse;whiteSpace=wrap;html=1;" vertex="1" parent="XBzS4Srf7KFiKvB-mdMv-1">
                    <mxGeometry x="280" width="120" height="80" as="geometry"/>
                </mxCell>
            </root>
        </mxGraphModel>
    </diagram>
    <diagram id="H8Y0e3mvBCEbA6ifiNL9" name="Step 3_UML">
        <mxGraphModel dx="1156" dy="729" grid="1" gridSize="10" guides="1" tooltips="1" connect="1" arrows="1" fold="1" page="1" pageScale="1" pageWidth="827" pageHeight="1169" math="0" shadow="0">
            <root>
                <mxCell id="gk5VRKvDB_yL7u87-SrX-0"/>
                <mxCell id="gk5VRKvDB_yL7u87-SrX-1" parent="gk5VRKvDB_yL7u87-SrX-0"/>
                <mxCell id="0RqENkZIASMJS9OdIU78-22" value="Route" style="swimlane;fontStyle=0;childLayout=stackLayout;horizontal=1;startSize=26;fillColor=none;horizontalStack=0;resizeParent=1;resizeParentMax=0;resizeLast=0;collapsible=1;marginBottom=0;" parent="gk5VRKvDB_yL7u87-SrX-1" vertex="1">
                    <mxGeometry x="80" y="120" width="140" height="156" as="geometry"/>
                </mxCell>
                <mxCell id="0RqENkZIASMJS9OdIU78-23" value="Route_id: int" style="text;strokeColor=#3A5431;fillColor=#6d8764;align=left;verticalAlign=top;spacingLeft=4;spacingRight=4;overflow=hidden;rotatable=0;points=[[0,0.5],[1,0.5]];portConstraint=eastwest;fontStyle=0;fontColor=#ffffff;" parent="0RqENkZIASMJS9OdIU78-22" vertex="1">
                    <mxGeometry y="26" width="140" height="26" as="geometry"/>
                </mxCell>
                <mxCell id="0RqENkZIASMJS9OdIU78-24" value="Source: string" style="text;strokeColor=none;fillColor=none;align=left;verticalAlign=top;spacingLeft=4;spacingRight=4;overflow=hidden;rotatable=0;points=[[0,0.5],[1,0.5]];portConstraint=eastwest;" parent="0RqENkZIASMJS9OdIU78-22" vertex="1">
                    <mxGeometry y="52" width="140" height="26" as="geometry"/>
                </mxCell>
                <mxCell id="0RqENkZIASMJS9OdIU78-25" value="Destination: string" style="text;strokeColor=none;fillColor=none;align=left;verticalAlign=top;spacingLeft=4;spacingRight=4;overflow=hidden;rotatable=0;points=[[0,0.5],[1,0.5]];portConstraint=eastwest;" parent="0RqENkZIASMJS9OdIU78-22" vertex="1">
                    <mxGeometry y="78" width="140" height="26" as="geometry"/>
                </mxCell>
                <mxCell id="0RqENkZIASMJS9OdIU78-26" value="Stops: int" style="text;strokeColor=none;fillColor=none;align=left;verticalAlign=top;spacingLeft=4;spacingRight=4;overflow=hidden;rotatable=0;points=[[0,0.5],[1,0.5]];portConstraint=eastwest;" parent="0RqENkZIASMJS9OdIU78-22" vertex="1">
                    <mxGeometry y="104" width="140" height="26" as="geometry"/>
                </mxCell>
                <mxCell id="0RqENkZIASMJS9OdIU78-27" value="Distance: int" style="text;strokeColor=none;fillColor=none;align=left;verticalAlign=top;spacingLeft=4;spacingRight=4;overflow=hidden;rotatable=0;points=[[0,0.5],[1,0.5]];portConstraint=eastwest;" parent="0RqENkZIASMJS9OdIU78-22" vertex="1">
                    <mxGeometry y="130" width="140" height="26" as="geometry"/>
                </mxCell>
                <mxCell id="NQGbUY0xbEWq4rEA0nAo-0" value="Bus_station" style="swimlane;fontStyle=0;childLayout=stackLayout;horizontal=1;startSize=26;fillColor=none;horizontalStack=0;resizeParent=1;resizeParentMax=0;resizeLast=0;collapsible=1;marginBottom=0;" parent="gk5VRKvDB_yL7u87-SrX-1" vertex="1">
                    <mxGeometry x="470" y="120" width="140" height="156" as="geometry"/>
                </mxCell>
                <mxCell id="NQGbUY0xbEWq4rEA0nAo-1" value="Station_id: int" style="text;strokeColor=#3A5431;fillColor=#6d8764;align=left;verticalAlign=top;spacingLeft=4;spacingRight=4;overflow=hidden;rotatable=0;points=[[0,0.5],[1,0.5]];portConstraint=eastwest;fontStyle=0;fontColor=#ffffff;" parent="NQGbUY0xbEWq4rEA0nAo-0" vertex="1">
                    <mxGeometry y="26" width="140" height="26" as="geometry"/>
                </mxCell>
                <mxCell id="NQGbUY0xbEWq4rEA0nAo-2" value="Address: string" style="text;strokeColor=none;fillColor=none;align=left;verticalAlign=top;spacingLeft=4;spacingRight=4;overflow=hidden;rotatable=0;points=[[0,0.5],[1,0.5]];portConstraint=eastwest;" parent="NQGbUY0xbEWq4rEA0nAo-0" vertex="1">
                    <mxGeometry y="52" width="140" height="26" as="geometry"/>
                </mxCell>
                <mxCell id="NQGbUY0xbEWq4rEA0nAo-3" value="City: string" style="text;strokeColor=none;fillColor=none;align=left;verticalAlign=top;spacingLeft=4;spacingRight=4;overflow=hidden;rotatable=0;points=[[0,0.5],[1,0.5]];portConstraint=eastwest;" parent="NQGbUY0xbEWq4rEA0nAo-0" vertex="1">
                    <mxGeometry y="78" width="140" height="26" as="geometry"/>
                </mxCell>
                <mxCell id="NQGbUY0xbEWq4rEA0nAo-4" value="Telephone: int" style="text;strokeColor=none;fillColor=none;align=left;verticalAlign=top;spacingLeft=4;spacingRight=4;overflow=hidden;rotatable=0;points=[[0,0.5],[1,0.5]];portConstraint=eastwest;" parent="NQGbUY0xbEWq4rEA0nAo-0" vertex="1">
                    <mxGeometry y="104" width="140" height="26" as="geometry"/>
                </mxCell>
                <mxCell id="NQGbUY0xbEWq4rEA0nAo-5" value="Distance: int" style="text;strokeColor=none;fillColor=none;align=left;verticalAlign=top;spacingLeft=4;spacingRight=4;overflow=hidden;rotatable=0;points=[[0,0.5],[1,0.5]];portConstraint=eastwest;" parent="NQGbUY0xbEWq4rEA0nAo-0" vertex="1">
                    <mxGeometry y="130" width="140" height="26" as="geometry"/>
                </mxCell>
                <mxCell id="NQGbUY0xbEWq4rEA0nAo-12" value="Bus" style="swimlane;fontStyle=0;childLayout=stackLayout;horizontal=1;startSize=26;fillColor=none;horizontalStack=0;resizeParent=1;resizeParentMax=0;resizeLast=0;collapsible=1;marginBottom=0;" parent="gk5VRKvDB_yL7u87-SrX-1" vertex="1">
                    <mxGeometry x="274" y="120" width="140" height="156" as="geometry"/>
                </mxCell>
                <mxCell id="NQGbUY0xbEWq4rEA0nAo-13" value="Bus_id: int" style="text;strokeColor=#3A5431;fillColor=#6d8764;align=left;verticalAlign=top;spacingLeft=4;spacingRight=4;overflow=hidden;rotatable=0;points=[[0,0.5],[1,0.5]];portConstraint=eastwest;fontStyle=0;fontColor=#ffffff;" parent="NQGbUY0xbEWq4rEA0nAo-12" vertex="1">
                    <mxGeometry y="26" width="140" height="26" as="geometry"/>
                </mxCell>
                <mxCell id="NQGbUY0xbEWq4rEA0nAo-14" value="Model: string" style="text;strokeColor=none;fillColor=none;align=left;verticalAlign=top;spacingLeft=4;spacingRight=4;overflow=hidden;rotatable=0;points=[[0,0.5],[1,0.5]];portConstraint=eastwest;" parent="NQGbUY0xbEWq4rEA0nAo-12" vertex="1">
                    <mxGeometry y="52" width="140" height="26" as="geometry"/>
                </mxCell>
                <mxCell id="NQGbUY0xbEWq4rEA0nAo-15" value="Plate_number: string" style="text;strokeColor=none;fillColor=none;align=left;verticalAlign=top;spacingLeft=4;spacingRight=4;overflow=hidden;rotatable=0;points=[[0,0.5],[1,0.5]];portConstraint=eastwest;" parent="NQGbUY0xbEWq4rEA0nAo-12" vertex="1">
                    <mxGeometry y="78" width="140" height="26" as="geometry"/>
                </mxCell>
                <mxCell id="NQGbUY0xbEWq4rEA0nAo-16" value="Driver: string" style="text;strokeColor=none;fillColor=none;align=left;verticalAlign=top;spacingLeft=4;spacingRight=4;overflow=hidden;rotatable=0;points=[[0,0.5],[1,0.5]];portConstraint=eastwest;" parent="NQGbUY0xbEWq4rEA0nAo-12" vertex="1">
                    <mxGeometry y="104" width="140" height="26" as="geometry"/>
                </mxCell>
                <mxCell id="NQGbUY0xbEWq4rEA0nAo-17" value="Capasity: int" style="text;strokeColor=none;fillColor=none;align=left;verticalAlign=top;spacingLeft=4;spacingRight=4;overflow=hidden;rotatable=0;points=[[0,0.5],[1,0.5]];portConstraint=eastwest;" parent="NQGbUY0xbEWq4rEA0nAo-12" vertex="1">
                    <mxGeometry y="130" width="140" height="26" as="geometry"/>
                </mxCell>
                <mxCell id="ufgJvvEt0yKbgxB_Kvxs-0" style="edgeStyle=none;html=1;exitX=0;exitY=0.5;exitDx=0;exitDy=0;entryX=1;entryY=0.5;entryDx=0;entryDy=0;startArrow=ERmany;startFill=0;endArrow=ERmany;endFill=0;" parent="gk5VRKvDB_yL7u87-SrX-1" source="NQGbUY0xbEWq4rEA0nAo-15" target="0RqENkZIASMJS9OdIU78-25" edge="1">
                    <mxGeometry relative="1" as="geometry"/>
                </mxCell>
                <mxCell id="ufgJvvEt0yKbgxB_Kvxs-1" style="edgeStyle=none;html=1;exitX=1;exitY=0.5;exitDx=0;exitDy=0;entryX=0;entryY=0.5;entryDx=0;entryDy=0;startArrow=ERmany;startFill=0;endArrow=ERmany;endFill=0;" parent="gk5VRKvDB_yL7u87-SrX-1" source="NQGbUY0xbEWq4rEA0nAo-15" target="NQGbUY0xbEWq4rEA0nAo-3" edge="1">
                    <mxGeometry relative="1" as="geometry"/>
                </mxCell>
            </root>
        </mxGraphModel>
    </diagram>
    <diagram id="vhP5kCwd72UqbudAcEcc" name="Step 4_Norm">
        <mxGraphModel dx="1067" dy="729" grid="1" gridSize="10" guides="1" tooltips="1" connect="1" arrows="1" fold="1" page="1" pageScale="1" pageWidth="827" pageHeight="1169" math="0" shadow="0">
            <root>
                <mxCell id="coXCchY4aqqs_4JRTBcN-0"/>
                <mxCell id="coXCchY4aqqs_4JRTBcN-1" parent="coXCchY4aqqs_4JRTBcN-0"/>
                <mxCell id="coXCchY4aqqs_4JRTBcN-2" value="Route" style="swimlane;fontStyle=0;childLayout=stackLayout;horizontal=1;startSize=26;fillColor=none;horizontalStack=0;resizeParent=1;resizeParentMax=0;resizeLast=0;collapsible=1;marginBottom=0;" parent="coXCchY4aqqs_4JRTBcN-1" vertex="1">
                    <mxGeometry x="390" y="100" width="140" height="156" as="geometry"/>
                </mxCell>
                <mxCell id="coXCchY4aqqs_4JRTBcN-3" value="Route_id: int" style="text;strokeColor=#3A5431;fillColor=#6d8764;align=left;verticalAlign=top;spacingLeft=4;spacingRight=4;overflow=hidden;rotatable=0;points=[[0,0.5],[1,0.5]];portConstraint=eastwest;fontStyle=0;fontColor=#ffffff;" parent="coXCchY4aqqs_4JRTBcN-2" vertex="1">
                    <mxGeometry y="26" width="140" height="26" as="geometry"/>
                </mxCell>
                <mxCell id="coXCchY4aqqs_4JRTBcN-4" value="Source: string" style="text;strokeColor=none;fillColor=none;align=left;verticalAlign=top;spacingLeft=4;spacingRight=4;overflow=hidden;rotatable=0;points=[[0,0.5],[1,0.5]];portConstraint=eastwest;" parent="coXCchY4aqqs_4JRTBcN-2" vertex="1">
                    <mxGeometry y="52" width="140" height="26" as="geometry"/>
                </mxCell>
                <mxCell id="coXCchY4aqqs_4JRTBcN-5" value="Destination: string" style="text;strokeColor=none;fillColor=none;align=left;verticalAlign=top;spacingLeft=4;spacingRight=4;overflow=hidden;rotatable=0;points=[[0,0.5],[1,0.5]];portConstraint=eastwest;" parent="coXCchY4aqqs_4JRTBcN-2" vertex="1">
                    <mxGeometry y="78" width="140" height="26" as="geometry"/>
                </mxCell>
                <mxCell id="coXCchY4aqqs_4JRTBcN-7" value="Distance: int" style="text;strokeColor=none;fillColor=none;align=left;verticalAlign=top;spacingLeft=4;spacingRight=4;overflow=hidden;rotatable=0;points=[[0,0.5],[1,0.5]];portConstraint=eastwest;" parent="coXCchY4aqqs_4JRTBcN-2" vertex="1">
                    <mxGeometry y="104" width="140" height="26" as="geometry"/>
                </mxCell>
                <mxCell id="cWfBcGg5_jq4tECp52i5-14" value="fk_bus_station: int" style="text;strokeColor=#314354;fillColor=#647687;align=left;verticalAlign=top;spacingLeft=4;spacingRight=4;overflow=hidden;rotatable=0;points=[[0,0.5],[1,0.5]];portConstraint=eastwest;fontColor=#ffffff;" parent="coXCchY4aqqs_4JRTBcN-2" vertex="1">
                    <mxGeometry y="130" width="140" height="26" as="geometry"/>
                </mxCell>
                <mxCell id="coXCchY4aqqs_4JRTBcN-8" value="Bus_station" style="swimlane;fontStyle=0;childLayout=stackLayout;horizontal=1;startSize=26;fillColor=none;horizontalStack=0;resizeParent=1;resizeParentMax=0;resizeLast=0;collapsible=1;marginBottom=0;" parent="coXCchY4aqqs_4JRTBcN-1" vertex="1">
                    <mxGeometry x="570" y="110" width="140" height="130" as="geometry"/>
                </mxCell>
                <mxCell id="coXCchY4aqqs_4JRTBcN-9" value="Station_id: int" style="text;strokeColor=#3A5431;fillColor=#6d8764;align=left;verticalAlign=top;spacingLeft=4;spacingRight=4;overflow=hidden;rotatable=0;points=[[0,0.5],[1,0.5]];portConstraint=eastwest;fontStyle=0;fontColor=#ffffff;" parent="coXCchY4aqqs_4JRTBcN-8" vertex="1">
                    <mxGeometry y="26" width="140" height="26" as="geometry"/>
                </mxCell>
                <mxCell id="coXCchY4aqqs_4JRTBcN-10" value="Address: string" style="text;strokeColor=none;fillColor=none;align=left;verticalAlign=top;spacingLeft=4;spacingRight=4;overflow=hidden;rotatable=0;points=[[0,0.5],[1,0.5]];portConstraint=eastwest;" parent="coXCchY4aqqs_4JRTBcN-8" vertex="1">
                    <mxGeometry y="52" width="140" height="26" as="geometry"/>
                </mxCell>
                <mxCell id="coXCchY4aqqs_4JRTBcN-12" value="Telephone: int" style="text;strokeColor=none;fillColor=none;align=left;verticalAlign=top;spacingLeft=4;spacingRight=4;overflow=hidden;rotatable=0;points=[[0,0.5],[1,0.5]];portConstraint=eastwest;" parent="coXCchY4aqqs_4JRTBcN-8" vertex="1">
                    <mxGeometry y="78" width="140" height="26" as="geometry"/>
                </mxCell>
                <mxCell id="cWfBcGg5_jq4tECp52i5-61" value="fk_order: int" style="text;strokeColor=none;fillColor=none;align=left;verticalAlign=top;spacingLeft=4;spacingRight=4;overflow=hidden;rotatable=0;points=[[0,0.5],[1,0.5]];portConstraint=eastwest;" parent="coXCchY4aqqs_4JRTBcN-8" vertex="1">
                    <mxGeometry y="104" width="140" height="26" as="geometry"/>
                </mxCell>
                <mxCell id="cWfBcGg5_jq4tECp52i5-49" style="edgeStyle=orthogonalEdgeStyle;html=1;exitX=1;exitY=0.25;exitDx=0;exitDy=0;entryX=0;entryY=0.5;entryDx=0;entryDy=0;startArrow=ERone;startFill=0;endArrow=ERone;endFill=0;" parent="coXCchY4aqqs_4JRTBcN-1" source="coXCchY4aqqs_4JRTBcN-14" target="cWfBcGg5_jq4tECp52i5-41" edge="1">
                    <mxGeometry relative="1" as="geometry"/>
                </mxCell>
                <mxCell id="coXCchY4aqqs_4JRTBcN-14" value="Bus" style="swimlane;fontStyle=0;childLayout=stackLayout;horizontal=1;startSize=26;fillColor=none;horizontalStack=0;resizeParent=1;resizeParentMax=0;resizeLast=0;collapsible=1;marginBottom=0;" parent="coXCchY4aqqs_4JRTBcN-1" vertex="1">
                    <mxGeometry x="80" y="280" width="140" height="156" as="geometry"/>
                </mxCell>
                <mxCell id="coXCchY4aqqs_4JRTBcN-15" value="Bus_id: int" style="text;strokeColor=#3A5431;fillColor=#6d8764;align=left;verticalAlign=top;spacingLeft=4;spacingRight=4;overflow=hidden;rotatable=0;points=[[0,0.5],[1,0.5]];portConstraint=eastwest;fontStyle=0;fontColor=#ffffff;" parent="coXCchY4aqqs_4JRTBcN-14" vertex="1">
                    <mxGeometry y="26" width="140" height="26" as="geometry"/>
                </mxCell>
                <mxCell id="coXCchY4aqqs_4JRTBcN-16" value="Model: string" style="text;strokeColor=none;fillColor=none;align=left;verticalAlign=top;spacingLeft=4;spacingRight=4;overflow=hidden;rotatable=0;points=[[0,0.5],[1,0.5]];portConstraint=eastwest;" parent="coXCchY4aqqs_4JRTBcN-14" vertex="1">
                    <mxGeometry y="52" width="140" height="26" as="geometry"/>
                </mxCell>
                <mxCell id="coXCchY4aqqs_4JRTBcN-17" value="Plate_number: string" style="text;strokeColor=none;fillColor=none;align=left;verticalAlign=top;spacingLeft=4;spacingRight=4;overflow=hidden;rotatable=0;points=[[0,0.5],[1,0.5]];portConstraint=eastwest;" parent="coXCchY4aqqs_4JRTBcN-14" vertex="1">
                    <mxGeometry y="78" width="140" height="26" as="geometry"/>
                </mxCell>
                <mxCell id="coXCchY4aqqs_4JRTBcN-19" value="Capasity: int" style="text;strokeColor=none;fillColor=none;align=left;verticalAlign=top;spacingLeft=4;spacingRight=4;overflow=hidden;rotatable=0;points=[[0,0.5],[1,0.5]];portConstraint=eastwest;" parent="coXCchY4aqqs_4JRTBcN-14" vertex="1">
                    <mxGeometry y="104" width="140" height="26" as="geometry"/>
                </mxCell>
                <mxCell id="coXCchY4aqqs_4JRTBcN-18" value="fk_driver: int" style="text;strokeColor=#314354;fillColor=#647687;align=left;verticalAlign=top;spacingLeft=4;spacingRight=4;overflow=hidden;rotatable=0;points=[[0,0.5],[1,0.5]];portConstraint=eastwest;fontColor=#ffffff;" parent="coXCchY4aqqs_4JRTBcN-14" vertex="1">
                    <mxGeometry y="130" width="140" height="26" as="geometry"/>
                </mxCell>
                <mxCell id="cWfBcGg5_jq4tECp52i5-0" value="Driver" style="swimlane;fontStyle=0;childLayout=stackLayout;horizontal=1;startSize=26;fillColor=none;horizontalStack=0;resizeParent=1;resizeParentMax=0;resizeLast=0;collapsible=1;marginBottom=0;" parent="coXCchY4aqqs_4JRTBcN-1" vertex="1">
                    <mxGeometry x="80" y="520" width="140" height="130" as="geometry"/>
                </mxCell>
                <mxCell id="cWfBcGg5_jq4tECp52i5-1" value="Driver_id: int" style="text;strokeColor=#3A5431;fillColor=#6d8764;align=left;verticalAlign=top;spacingLeft=4;spacingRight=4;overflow=hidden;rotatable=0;points=[[0,0.5],[1,0.5]];portConstraint=eastwest;fontStyle=0;fontColor=#ffffff;" parent="cWfBcGg5_jq4tECp52i5-0" vertex="1">
                    <mxGeometry y="26" width="140" height="26" as="geometry"/>
                </mxCell>
                <mxCell id="cWfBcGg5_jq4tECp52i5-2" value="lName: string" style="text;strokeColor=none;fillColor=none;align=left;verticalAlign=top;spacingLeft=4;spacingRight=4;overflow=hidden;rotatable=0;points=[[0,0.5],[1,0.5]];portConstraint=eastwest;" parent="cWfBcGg5_jq4tECp52i5-0" vertex="1">
                    <mxGeometry y="52" width="140" height="26" as="geometry"/>
                </mxCell>
                <mxCell id="cWfBcGg5_jq4tECp52i5-6" value="fName: string" style="text;strokeColor=none;fillColor=none;align=left;verticalAlign=top;spacingLeft=4;spacingRight=4;overflow=hidden;rotatable=0;points=[[0,0.5],[1,0.5]];portConstraint=eastwest;" parent="cWfBcGg5_jq4tECp52i5-0" vertex="1">
                    <mxGeometry y="78" width="140" height="26" as="geometry"/>
                </mxCell>
                <mxCell id="cWfBcGg5_jq4tECp52i5-4" value="address: string" style="text;strokeColor=none;fillColor=none;align=left;verticalAlign=top;spacingLeft=4;spacingRight=4;overflow=hidden;rotatable=0;points=[[0,0.5],[1,0.5]];portConstraint=eastwest;" parent="cWfBcGg5_jq4tECp52i5-0" vertex="1">
                    <mxGeometry y="104" width="140" height="26" as="geometry"/>
                </mxCell>
                <mxCell id="cWfBcGg5_jq4tECp52i5-15" value="Bus Model" style="swimlane;fontStyle=0;childLayout=stackLayout;horizontal=1;startSize=26;fillColor=none;horizontalStack=0;resizeParent=1;resizeParentMax=0;resizeLast=0;collapsible=1;marginBottom=0;" parent="coXCchY4aqqs_4JRTBcN-1" vertex="1">
                    <mxGeometry x="170" y="139" width="140" height="78" as="geometry"/>
                </mxCell>
                <mxCell id="cWfBcGg5_jq4tECp52i5-16" value="Bus__model_id: int" style="text;strokeColor=#3A5431;fillColor=#6d8764;align=left;verticalAlign=top;spacingLeft=4;spacingRight=4;overflow=hidden;rotatable=0;points=[[0,0.5],[1,0.5]];portConstraint=eastwest;fontStyle=0;fontColor=#ffffff;" parent="cWfBcGg5_jq4tECp52i5-15" vertex="1">
                    <mxGeometry y="26" width="140" height="26" as="geometry"/>
                </mxCell>
                <mxCell id="cWfBcGg5_jq4tECp52i5-17" value="Model_brand: string" style="text;strokeColor=none;fillColor=none;align=left;verticalAlign=top;spacingLeft=4;spacingRight=4;overflow=hidden;rotatable=0;points=[[0,0.5],[1,0.5]];portConstraint=eastwest;" parent="cWfBcGg5_jq4tECp52i5-15" vertex="1">
                    <mxGeometry y="52" width="140" height="26" as="geometry"/>
                </mxCell>
                <mxCell id="cWfBcGg5_jq4tECp52i5-24" style="edgeStyle=orthogonalEdgeStyle;html=1;exitX=1;exitY=0.5;exitDx=0;exitDy=0;entryX=0;entryY=0.5;entryDx=0;entryDy=0;startArrow=ERone;startFill=0;endArrow=ERone;endFill=0;" parent="coXCchY4aqqs_4JRTBcN-1" source="cWfBcGg5_jq4tECp52i5-14" target="coXCchY4aqqs_4JRTBcN-9" edge="1">
                    <mxGeometry relative="1" as="geometry"/>
                </mxCell>
                <mxCell id="cWfBcGg5_jq4tECp52i5-26" value="Stops" style="swimlane;fontStyle=0;childLayout=stackLayout;horizontal=1;startSize=26;fillColor=none;horizontalStack=0;resizeParent=1;resizeParentMax=0;resizeLast=0;collapsible=1;marginBottom=0;" parent="coXCchY4aqqs_4JRTBcN-1" vertex="1">
                    <mxGeometry x="490" y="481" width="140" height="78" as="geometry"/>
                </mxCell>
                <mxCell id="cWfBcGg5_jq4tECp52i5-27" value="Stop_id: int" style="text;strokeColor=#3A5431;fillColor=#6d8764;align=left;verticalAlign=top;spacingLeft=4;spacingRight=4;overflow=hidden;rotatable=0;points=[[0,0.5],[1,0.5]];portConstraint=eastwest;fontStyle=0;fontColor=#ffffff;" parent="cWfBcGg5_jq4tECp52i5-26" vertex="1">
                    <mxGeometry y="26" width="140" height="26" as="geometry"/>
                </mxCell>
                <mxCell id="cWfBcGg5_jq4tECp52i5-28" value="address: string" style="text;strokeColor=none;fillColor=none;align=left;verticalAlign=top;spacingLeft=4;spacingRight=4;overflow=hidden;rotatable=0;points=[[0,0.5],[1,0.5]];portConstraint=eastwest;" parent="cWfBcGg5_jq4tECp52i5-26" vertex="1">
                    <mxGeometry y="52" width="140" height="26" as="geometry"/>
                </mxCell>
                <mxCell id="cWfBcGg5_jq4tECp52i5-41" value="Mapping" style="swimlane;fontStyle=0;childLayout=stackLayout;horizontal=1;startSize=26;fillColor=none;horizontalStack=0;resizeParent=1;resizeParentMax=0;resizeLast=0;collapsible=1;marginBottom=0;" parent="coXCchY4aqqs_4JRTBcN-1" vertex="1">
                    <mxGeometry x="290" y="436" width="140" height="130" as="geometry"/>
                </mxCell>
                <mxCell id="cWfBcGg5_jq4tECp52i5-35" value="fk_order: int" style="text;strokeColor=#314354;fillColor=#647687;align=left;verticalAlign=top;spacingLeft=4;spacingRight=4;overflow=hidden;rotatable=0;points=[[0,0.5],[1,0.5]];portConstraint=eastwest;fontColor=#ffffff;" parent="cWfBcGg5_jq4tECp52i5-41" vertex="1">
                    <mxGeometry y="26" width="140" height="26" as="geometry"/>
                </mxCell>
                <mxCell id="cWfBcGg5_jq4tECp52i5-13" value="fk_bus: int" style="text;strokeColor=#314354;fillColor=#647687;align=left;verticalAlign=top;spacingLeft=4;spacingRight=4;overflow=hidden;rotatable=0;points=[[0,0.5],[1,0.5]];portConstraint=eastwest;fontColor=#ffffff;" parent="cWfBcGg5_jq4tECp52i5-41" vertex="1">
                    <mxGeometry y="52" width="140" height="26" as="geometry"/>
                </mxCell>
                <mxCell id="cWfBcGg5_jq4tECp52i5-11" value="fk_route: int" style="text;strokeColor=#314354;fillColor=#647687;align=left;verticalAlign=top;spacingLeft=4;spacingRight=4;overflow=hidden;rotatable=0;points=[[0,0.5],[1,0.5]];portConstraint=eastwest;fontColor=#ffffff;" parent="cWfBcGg5_jq4tECp52i5-41" vertex="1">
                    <mxGeometry y="78" width="140" height="26" as="geometry"/>
                </mxCell>
                <mxCell id="coXCchY4aqqs_4JRTBcN-6" value="fk_stop: int" style="text;strokeColor=#314354;fillColor=#647687;align=left;verticalAlign=top;spacingLeft=4;spacingRight=4;overflow=hidden;rotatable=0;points=[[0,0.5],[1,0.5]];portConstraint=eastwest;fontColor=#ffffff;" parent="cWfBcGg5_jq4tECp52i5-41" vertex="1">
                    <mxGeometry y="104" width="140" height="26" as="geometry"/>
                </mxCell>
                <mxCell id="cWfBcGg5_jq4tECp52i5-47" style="edgeStyle=orthogonalEdgeStyle;html=1;exitX=1;exitY=0.5;exitDx=0;exitDy=0;entryX=0;entryY=0.5;entryDx=0;entryDy=0;startArrow=ERone;startFill=0;endArrow=ERone;endFill=0;" parent="coXCchY4aqqs_4JRTBcN-1" source="coXCchY4aqqs_4JRTBcN-6" target="cWfBcGg5_jq4tECp52i5-27" edge="1">
                    <mxGeometry relative="1" as="geometry"/>
                </mxCell>
                <mxCell id="cWfBcGg5_jq4tECp52i5-48" style="edgeStyle=orthogonalEdgeStyle;html=1;exitX=1;exitY=0.5;exitDx=0;exitDy=0;entryX=0;entryY=0.5;entryDx=0;entryDy=0;startArrow=ERone;startFill=0;endArrow=ERone;endFill=0;" parent="coXCchY4aqqs_4JRTBcN-1" source="cWfBcGg5_jq4tECp52i5-11" target="coXCchY4aqqs_4JRTBcN-3" edge="1">
                    <mxGeometry relative="1" as="geometry"/>
                </mxCell>
                <mxCell id="cWfBcGg5_jq4tECp52i5-50" style="edgeStyle=orthogonalEdgeStyle;html=1;exitX=1;exitY=0.5;exitDx=0;exitDy=0;entryX=1;entryY=0.5;entryDx=0;entryDy=0;startArrow=ERone;startFill=0;endArrow=ERone;endFill=0;" parent="coXCchY4aqqs_4JRTBcN-1" source="coXCchY4aqqs_4JRTBcN-18" target="cWfBcGg5_jq4tECp52i5-16" edge="1">
                    <mxGeometry relative="1" as="geometry"/>
                </mxCell>
                <mxCell id="cWfBcGg5_jq4tECp52i5-52" value="Address" style="swimlane;fontStyle=0;childLayout=stackLayout;horizontal=1;startSize=20;fillColor=none;horizontalStack=0;resizeParent=1;resizeParentMax=0;resizeLast=0;collapsible=1;marginBottom=0;" parent="coXCchY4aqqs_4JRTBcN-1" vertex="1">
                    <mxGeometry x="660" y="580" width="140" height="124" as="geometry"/>
                </mxCell>
                <mxCell id="cWfBcGg5_jq4tECp52i5-53" value="Address_id: int" style="text;strokeColor=#3A5431;fillColor=#6d8764;align=left;verticalAlign=top;spacingLeft=4;spacingRight=4;overflow=hidden;rotatable=0;points=[[0,0.5],[1,0.5]];portConstraint=eastwest;fontStyle=0;fontColor=#ffffff;" parent="cWfBcGg5_jq4tECp52i5-52" vertex="1">
                    <mxGeometry y="20" width="140" height="26" as="geometry"/>
                </mxCell>
                <mxCell id="cWfBcGg5_jq4tECp52i5-55" value="City: string" style="text;strokeColor=none;fillColor=none;align=left;verticalAlign=top;spacingLeft=4;spacingRight=4;overflow=hidden;rotatable=0;points=[[0,0.5],[1,0.5]];portConstraint=eastwest;" parent="cWfBcGg5_jq4tECp52i5-52" vertex="1">
                    <mxGeometry y="46" width="140" height="26" as="geometry"/>
                </mxCell>
                <mxCell id="BtqqoPHMG5aXkuje5vui-0" value="ZIP: int" style="text;strokeColor=none;fillColor=none;align=left;verticalAlign=top;spacingLeft=4;spacingRight=4;overflow=hidden;rotatable=0;points=[[0,0.5],[1,0.5]];portConstraint=eastwest;" vertex="1" parent="cWfBcGg5_jq4tECp52i5-52">
                    <mxGeometry y="72" width="140" height="26" as="geometry"/>
                </mxCell>
                <mxCell id="BtqqoPHMG5aXkuje5vui-1" value="Country: string" style="text;strokeColor=none;fillColor=none;align=left;verticalAlign=top;spacingLeft=4;spacingRight=4;overflow=hidden;rotatable=0;points=[[0,0.5],[1,0.5]];portConstraint=eastwest;" vertex="1" parent="cWfBcGg5_jq4tECp52i5-52">
                    <mxGeometry y="98" width="140" height="26" as="geometry"/>
                </mxCell>
                <mxCell id="cWfBcGg5_jq4tECp52i5-57" style="edgeStyle=orthogonalEdgeStyle;html=1;exitX=0;exitY=0.5;exitDx=0;exitDy=0;entryX=0;entryY=0.5;entryDx=0;entryDy=0;startArrow=ERone;startFill=0;endArrow=ERone;endFill=0;" parent="coXCchY4aqqs_4JRTBcN-1" source="coXCchY4aqqs_4JRTBcN-18" target="cWfBcGg5_jq4tECp52i5-1" edge="1">
                    <mxGeometry relative="1" as="geometry"/>
                </mxCell>
                <mxCell id="kWyccg2JcZnNxX15e5y3-0" value="Order" style="swimlane;fontStyle=0;childLayout=stackLayout;horizontal=1;startSize=26;fillColor=none;horizontalStack=0;resizeParent=1;resizeParentMax=0;resizeLast=0;collapsible=1;marginBottom=0;" parent="coXCchY4aqqs_4JRTBcN-1" vertex="1">
                    <mxGeometry x="570" y="310" width="140" height="78" as="geometry"/>
                </mxCell>
                <mxCell id="kWyccg2JcZnNxX15e5y3-1" value="Order_id: int" style="text;strokeColor=#3A5431;fillColor=#6d8764;align=left;verticalAlign=top;spacingLeft=4;spacingRight=4;overflow=hidden;rotatable=0;points=[[0,0.5],[1,0.5]];portConstraint=eastwest;fontStyle=0;fontColor=#ffffff;" parent="kWyccg2JcZnNxX15e5y3-0" vertex="1">
                    <mxGeometry y="26" width="140" height="26" as="geometry"/>
                </mxCell>
                <mxCell id="kWyccg2JcZnNxX15e5y3-5" value="Description: string" style="text;align=left;verticalAlign=top;spacingLeft=4;spacingRight=4;overflow=hidden;rotatable=0;points=[[0,0.5],[1,0.5]];portConstraint=eastwest;fontStyle=0;" parent="kWyccg2JcZnNxX15e5y3-0" vertex="1">
                    <mxGeometry y="52" width="140" height="26" as="geometry"/>
                </mxCell>
                <mxCell id="kWyccg2JcZnNxX15e5y3-3" style="edgeStyle=orthogonalEdgeStyle;html=1;exitX=1;exitY=0.5;exitDx=0;exitDy=0;entryX=1;entryY=0.5;entryDx=0;entryDy=0;startArrow=ERone;startFill=0;endArrow=ERone;endFill=0;" parent="coXCchY4aqqs_4JRTBcN-1" source="cWfBcGg5_jq4tECp52i5-61" target="kWyccg2JcZnNxX15e5y3-1" edge="1">
                    <mxGeometry relative="1" as="geometry"/>
                </mxCell>
                <mxCell id="kWyccg2JcZnNxX15e5y3-4" style="edgeStyle=orthogonalEdgeStyle;html=1;exitX=0;exitY=0.5;exitDx=0;exitDy=0;startArrow=ERone;startFill=0;endArrow=ERone;endFill=0;" parent="coXCchY4aqqs_4JRTBcN-1" source="kWyccg2JcZnNxX15e5y3-1" target="cWfBcGg5_jq4tECp52i5-35" edge="1">
                    <mxGeometry relative="1" as="geometry"/>
                </mxCell>
                <mxCell id="BtqqoPHMG5aXkuje5vui-3" style="edgeStyle=orthogonalEdgeStyle;html=1;exitX=1;exitY=0.5;exitDx=0;exitDy=0;entryX=1;entryY=0.25;entryDx=0;entryDy=0;endArrow=ERone;endFill=0;" edge="1" parent="coXCchY4aqqs_4JRTBcN-1" source="coXCchY4aqqs_4JRTBcN-10" target="cWfBcGg5_jq4tECp52i5-52">
                    <mxGeometry relative="1" as="geometry"/>
                </mxCell>
                <mxCell id="BtqqoPHMG5aXkuje5vui-4" style="edgeStyle=orthogonalEdgeStyle;html=1;exitX=1;exitY=0.5;exitDx=0;exitDy=0;entryX=0;entryY=0.25;entryDx=0;entryDy=0;endArrow=ERone;endFill=0;" edge="1" parent="coXCchY4aqqs_4JRTBcN-1" source="cWfBcGg5_jq4tECp52i5-27" target="cWfBcGg5_jq4tECp52i5-52">
                    <mxGeometry relative="1" as="geometry"/>
                </mxCell>
                <mxCell id="BtqqoPHMG5aXkuje5vui-5" style="edgeStyle=orthogonalEdgeStyle;html=1;exitX=1;exitY=0.5;exitDx=0;exitDy=0;entryX=0;entryY=0.5;entryDx=0;entryDy=0;endArrow=ERone;endFill=0;" edge="1" parent="coXCchY4aqqs_4JRTBcN-1" source="cWfBcGg5_jq4tECp52i5-4" target="cWfBcGg5_jq4tECp52i5-53">
                    <mxGeometry relative="1" as="geometry"/>
                </mxCell>
            </root>
        </mxGraphModel>
    </diagram>
</mxfile>